<svg version="1.2" xmlns="http://www.w3.org/2000/svg" viewBox="0 0 936 635" width="936" height="635">
	<title>logo filmo</title>
	<style>
		.s0 { fill: #fec526 } 
	</style>
	<g id="Layer 1">
		<g id="&lt;Group&gt;">
			<path id="&lt;Path&gt;" class="s0" d="m178.1 93.5v-56.7h-121-56.7v499.5h56.7v-273.7h68.3v-56.7h-68.3v-112.4z"/>
		</g>
		<g id="&lt;Group&gt;">
			<path id="&lt;Path&gt;" class="s0" d="m251 536.3h-56.7v-499.5h56.7z"/>
		</g>
		<g id="&lt;Group&gt;">
			<path id="&lt;Path&gt;" class="s0" d="m324.7 578.3v-541.5h-56.7v598.1h56.7 217.9v-56.6z"/>
		</g>
		<path id="&lt;Path&gt;" class="s0" d="m341.7-0.4h56.7l91.7 110.6 91.7-110.6h56.7v555.4h-56.7v-466.6l-91.5 110.8-91.9-110.8v466.6h-56.7z"/>
		<g id="&lt;Group&gt;">
			<path id="O
" class="s0" aria-label="O"  d="m794.5 278.9q-45.1 0-71.8 33.6-26.4 33.7-26.4 91.7 0 57.8 26.4 91.5 26.7 33.6 71.8 33.6 45.1 0 71.4-33.6 26.4-33.7 26.4-91.5 0-58-26.4-91.7-26.3-33.6-71.4-33.6zm0-33.6q64.4 0 102.9 43.3 38.6 43 38.6 115.6 0 72.4-38.6 115.7-38.5 43-102.9 43-64.6 0-103.4-43-38.5-43.1-38.5-115.7 0-72.6 38.5-115.6 38.8-43.3 103.4-43.3z"/>
			<path id="O
" class="s0" aria-label="O"  d="m792.6 287.8q-43.5 0-69.2 32.5-25.5 32.4-25.5 88.4 0 55.7 25.5 88.2 25.7 32.4 69.2 32.4 43.5 0 68.8-32.4 25.5-32.5 25.5-88.2 0-56-25.5-88.4-25.3-32.5-68.8-32.5zm0-32.4q62.1 0 99.3 41.7 37.1 41.6 37.1 111.6 0 69.8-37.1 111.5-37.2 41.5-99.3 41.5-62.3 0-99.7-41.5-37.2-41.5-37.2-111.5 0-70 37.2-111.6 37.4-41.7 99.7-41.7z"/>
		</g>
	</g>
</svg>