<svg width="20" height="21" viewBox="0 0 20 21" fill="none" xmlns="http://www.w3.org/2000/svg">
<g clip-path="url(#clip0_400_491)">
<path d="M10 0.382812C7.28625 0.382812 6.945 0.395313 5.87875 0.442813C4.8125 0.492812 4.08625 0.660312 3.45 0.907812C2.78231 1.15822 2.17768 1.55206 1.67875 2.06156C1.16925 2.56049 0.775407 3.16512 0.525 3.83281C0.2775 4.46781 0.10875 5.19531 0.06 6.25781C0.0125 7.32656 0 7.66656 0 10.3841C0 13.0991 0.0125 13.4391 0.06 14.5053C0.11 15.5703 0.2775 16.2966 0.525 16.9328C0.78125 17.5903 1.1225 18.1478 1.67875 18.7041C2.23375 19.2603 2.79125 19.6028 3.44875 19.8578C4.08625 20.1053 4.81125 20.2741 5.87625 20.3228C6.94375 20.3703 7.28375 20.3828 10 20.3828C12.7163 20.3828 13.055 20.3703 14.1225 20.3228C15.1863 20.2728 15.915 20.1053 16.5513 19.8578C17.2185 19.6072 17.8227 19.2134 18.3212 18.7041C18.8775 18.1478 19.2188 17.5903 19.475 16.9328C19.7213 16.2966 19.89 15.5703 19.94 14.5053C19.9875 13.4391 20 13.0991 20 10.3828C20 7.66656 19.9875 7.32656 19.94 6.25906C19.89 5.19531 19.7213 4.46781 19.475 3.83281C19.2246 3.16512 18.8308 2.56049 18.3212 2.06156C17.8223 1.55206 17.2177 1.15822 16.55 0.907812C15.9125 0.660312 15.185 0.491563 14.1213 0.442813C13.0538 0.395313 12.715 0.382812 9.9975 0.382812H10ZM9.10375 2.18531H10.0013C12.6713 2.18531 12.9875 2.19406 14.0413 2.24281C15.0162 2.28656 15.5462 2.45031 15.8988 2.58656C16.365 2.76781 16.6987 2.98531 17.0487 3.33531C17.3988 3.68531 17.615 4.01781 17.7963 4.48531C17.9338 4.83656 18.0963 5.36656 18.14 6.34156C18.1887 7.39531 18.1987 7.71156 18.1987 10.3803C18.1987 13.0491 18.1887 13.3666 18.14 14.4203C18.0963 15.3953 17.9325 15.9241 17.7963 16.2766C17.6348 16.7102 17.3791 17.1026 17.0475 17.4253C16.6975 17.7753 16.365 17.9916 15.8975 18.1728C15.5475 18.3103 15.0175 18.4728 14.0413 18.5178C12.9875 18.5653 12.6713 18.5766 10.0013 18.5766C7.33125 18.5766 7.01375 18.5653 5.96 18.5178C4.985 18.4728 4.45625 18.3103 4.10375 18.1728C3.66979 18.0119 3.277 17.7566 2.95375 17.4253C2.62159 17.1023 2.36541 16.7095 2.20375 16.2753C2.0675 15.9241 1.90375 15.3941 1.86 14.4191C1.8125 13.3653 1.8025 13.0491 1.8025 10.3778C1.8025 7.70656 1.8125 7.39281 1.86 6.33906C1.905 5.36406 2.0675 4.83406 2.205 4.48156C2.38625 4.01531 2.60375 3.68156 2.95375 3.33156C3.30375 2.98156 3.63625 2.76531 4.10375 2.58406C4.45625 2.44656 4.985 2.28406 5.96 2.23906C6.8825 2.19656 7.24 2.18406 9.10375 2.18281V2.18531ZM15.3387 3.84531C15.1812 3.84531 15.0251 3.87635 14.8795 3.93666C14.7339 3.99696 14.6017 4.08535 14.4902 4.19678C14.3788 4.30821 14.2904 4.4405 14.2301 4.58609C14.1698 4.73168 14.1388 4.88773 14.1388 5.04531C14.1388 5.2029 14.1698 5.35894 14.2301 5.50453C14.2904 5.65012 14.3788 5.78241 14.4902 5.89384C14.6017 6.00527 14.7339 6.09366 14.8795 6.15397C15.0251 6.21427 15.1812 6.24531 15.3387 6.24531C15.657 6.24531 15.9622 6.11888 16.1873 5.89384C16.4123 5.6688 16.5387 5.36357 16.5387 5.04531C16.5387 4.72705 16.4123 4.42183 16.1873 4.19678C15.9622 3.97174 15.657 3.84531 15.3387 3.84531ZM10.0013 5.24781C9.32009 5.23719 8.64362 5.36217 8.01122 5.61549C7.37883 5.86881 6.80314 6.2454 6.31769 6.72334C5.83223 7.20128 5.4467 7.77102 5.18355 8.39939C4.9204 9.02775 4.78488 9.70219 4.78488 10.3834C4.78488 11.0647 4.9204 11.7391 5.18355 12.3675C5.4467 12.9959 5.83223 13.5656 6.31769 14.0435C6.80314 14.5215 7.37883 14.8981 8.01122 15.1514C8.64362 15.4047 9.32009 15.5297 10.0013 15.5191C11.3494 15.498 12.6353 14.9477 13.5812 13.9869C14.5272 13.026 15.0574 11.7318 15.0574 10.3834C15.0574 9.0351 14.5272 7.74083 13.5812 6.78C12.6353 5.81917 11.3494 5.26885 10.0013 5.24781ZM10.0013 7.04906C10.439 7.04906 10.8726 7.13529 11.277 7.30283C11.6815 7.47037 12.049 7.71593 12.3586 8.0255C12.6681 8.33506 12.9137 8.70257 13.0812 9.10704C13.2488 9.51151 13.335 9.94502 13.335 10.3828C13.335 10.8206 13.2488 11.2541 13.0812 11.6586C12.9137 12.0631 12.6681 12.4306 12.3586 12.7401C12.049 13.0497 11.6815 13.2953 11.277 13.4628C10.8726 13.6303 10.439 13.7166 10.0013 13.7166C9.11709 13.7166 8.26913 13.3653 7.64393 12.7401C7.01873 12.1149 6.6675 11.267 6.6675 10.3828C6.6675 9.49865 7.01873 8.65069 7.64393 8.0255C8.26913 7.4003 9.11709 7.04906 10.0013 7.04906Z" fill="#161312"/>
</g>
<defs>
<clipPath id="clip0_400_491">
<rect width="20" height="20" fill="white" transform="translate(0 0.382812)"/>
</clipPath>
</defs>
</svg>
